<?xml version="1.0" encoding="utf-8"?>
<!-- Generator: Adobe Illustrator 16.0.0, SVG Export Plug-In . SVG Version: 6.00 Build 0)  -->
<!DOCTYPE svg PUBLIC "-//W3C//DTD SVG 1.1//EN" "http://www.w3.org/Graphics/SVG/1.1/DTD/svg11.dtd">
<svg version="1.1" xmlns="http://www.w3.org/2000/svg" xmlns:xlink="http://www.w3.org/1999/xlink" x="0px" y="0px"
	 width="443.003px" height="200px" viewBox="0 0 443.003 200" enable-background="new 0 0 443.003 200" xml:space="preserve">
<g id="Layer_2" display="none">
	<g display="inline">
		<path fill="#FFFFFF" d="M45,57c0,0,16.075-22,16.075,0c0,21-4.306,100.25,15.939,100.25S97.41,79.204,97.41,79.204
			s-0.447,76.248,15.598,76.248c24.639,0,19.189-112.723,25.992-110.307"/>
		<path d="M77.014,161.5c-3.314,0-6.409-1.368-8.949-3.957c-12.071-12.3-12.333-53.45-11.629-91.056
			c0.075-4.004,0.14-7.462,0.14-9.987c0-2.572-0.249-4.075-0.47-4.902c-1.872,1.102-5.122,4.342-7.472,7.557l-7.267-5.31
			c9.102-12.457,15.536-12.023,17.88-11.256c6.328,2.065,6.328,10.981,6.328,13.911c0,2.609-0.065,6.106-0.141,10.155
			c-0.414,22.129-1.382,73.95,9.054,84.583c1.097,1.118,1.926,1.262,2.526,1.262c4.017,0,9.963-9.179,13.374-35.049
			C92.816,99.027,93,80.372,93,79.134c0-0.048,0-0.075,0-0.081l8.955,0.035c0,0.058-0.023,0.211-0.025,0.452
			c-0.1,23.494,2.538,63.097,10.135,70.738c0.183,0.184,0.637,0.612,0.949,0.612c6.354,0,10.455-18.763,11.561-24.513
			c3.051-15.857,4.414-35.997,5.51-52.179c1.729-25.514,2.373-30.715,5.888-33.023c1.357-0.89,3.01-1.092,4.533-0.55l-3.013,8.48
			c2.088,0.743,3.979-0.53,4.406-1.42c-1.163,2.424-2.052,15.545-2.836,27.122c-3.153,46.55-7.291,85.083-26.055,85.083
			c-1.865,0-4.652-0.567-7.337-3.268c-1.61-1.62-5.726-5.76-8.88-23.483C92.631,152.19,86.114,161.5,77.014,161.5z"/>
	</g>
	<g display="inline">
		<path fill="#FFFFFF" d="M160.668,85c-3.668,1.75-17.167,101.167,6.333,60.5"/>
		<path d="M158.048,159.769c-0.448,0-0.903-0.045-1.366-0.139c-5.887-1.199-6.847-9.024-7.208-11.97
			c-1.451-11.822,0.656-30.927,1.628-38.592c3.309-26.069,5.705-27.212,7.629-28.13l3.875,8.123
			c1.188-0.566,1.637-1.455,1.641-1.464c-1.088,2.202-3.737,16.043-5.25,31.886c-1.649,17.265-1.011,26.255-0.117,30.002
			c0.94-1.079,2.336-2.967,4.227-6.237l7.792,4.504C167.423,153.766,163.214,159.769,158.048,159.769z"/>
	</g>
	<g display="inline">
		<path fill="#FFFFFF" d="M183.587,138.167c0,0-3.969,16.833,10.5,16.833c7.418,0,13.539-4.705,13.539-14.538
			c0-8.55-3.317-16.311-8.695-25.038C188.742,98.889,180.724,85,193.89,85c29,0,18.364,13.167,15.53,12.167"/>
		<path d="M194.087,159.5c-6.57,0-10.203-2.848-12.094-5.236c-5.111-6.456-3.039-16.056-2.786-17.129l8.764,2.048
			c-0.374,1.645-0.977,6.919,1.089,9.509c0.357,0.447,1.444,1.809,5.027,1.809c3.376,0,9.039-1.304,9.039-10.038
			c0-6.765-2.4-13.547-8.026-22.678c-9.635-15.636-15.21-25.621-11.406-32.434c1.797-3.219,5.228-4.851,10.196-4.851
			c13.422,0,21.13,2.717,23.562,8.307c1.45,3.33,0.662,7.211-2.055,10.128c-2.244,2.41-5.038,3.336-7.475,2.475l2.995-8.486
			c-1.198-0.423-2.108-0.074-2.286,0.042c0.174-0.114,0.412-0.429,0.501-0.644c-0.452-0.488-3.251-2.822-15.243-2.822
			c-1.485,0-2.144,0.228-2.364,0.331c-0.977,3.412,7.563,17.273,11.236,23.233c6.563,10.652,9.364,18.846,9.364,27.398
			C212.126,151.85,204.876,159.5,194.087,159.5z"/>
	</g>
	<g display="inline">
		<path fill="#FFFFFF" d="M162.795,70.497c0,0,4.054-10.062,4.585-9.828"/>
		<path d="M166.969,72.178l-8.348-3.363c4.557-11.312,5.276-11.604,7.014-12.312l3.558,0.046l-3.624,8.238
			c2.244,0.987,4.493-0.143,5.253-1.339C170.273,64.313,168.387,68.66,166.969,72.178z"/>
	</g>
	<g display="inline">
		<path fill="#FFFFFF" d="M242.738,85.194c0,0-13.447-5.958-13.447,34.972c0,25.501,2.426,34.883,8.784,34.883
			c6.549,0,12.924-2.215,12.924-35.049c0-35-4-67,0-67"/>
		<path d="M238.388,159.549c-12.441,0-13.472-18.629-13.472-39.383c0-20.967,3.415-33.389,10.439-37.977
			c3.554-2.322,7.307-2.052,9.442-1.116l-3.618,8.241c0,0,0.087,0.054,0.25,0.096c-0.134-0.034-0.628-0.104-1.371,0.469
			c-1.441,1.112-6.143,6.584-6.143,30.286c0,28.918,3.725,30.383,4.472,30.383c2.466,0,3.688-0.266,5.033-2.812
			C245.796,143.237,247,133.906,247,120c0-13.468-0.61-26.773-1.1-37.463c-1.036-22.606-1.452-29.262,1.522-32.376
			C248.445,49.09,250,48.5,251,48.5v9c2,0,3.204-1.216,3.443-1.867c-0.904,2.455-0.194,15.225,0.322,26.491
			c0.494,10.782,1.172,24.202,1.172,37.875C255.938,148.83,251.227,159.549,238.388,159.549z"/>
	</g>
	<g display="inline">
		<path fill="#FFFFFF" d="M283.447,85c0,0-12.947-2.583-12.947,35.069c0,30.265,4.165,36.015,11.768,36.015
			c10.232,0,12.482-11.25,12.482-36.015C294.75,102.834,297.318,85,283.447,85z"/>
		<path d="M282.268,160.584c-13.675,0-16.268-14.239-16.268-40.515c0-14.896,2.004-25.763,5.957-32.299
			c3.989-6.596,9-7.308,10.97-7.308c0.315,0,0.589,0.017,0.817,0.04c4.199,0.062,7.634,1.425,10.211,4.055
			c5.849,5.97,5.626,16.926,5.391,28.524c-0.047,2.296-0.095,4.67-0.095,6.988C299.25,142.235,297.972,160.584,282.268,160.584z
			 M282.776,90c-1.097,0-7.776,3.372-7.776,30.319c0,31.515,4.728,31.39,7.268,31.39c5.056,0,7.982-5.219,7.982-31.577
			c0-2.41,0.049-4.861,0.097-7.202c0.188-9.23,0.382-18.54-2.821-21.809c-0.57-0.582-1.613-1.121-4.079-1.121H282.776z"/>
	</g>
	<g display="inline">
		<path fill="#FFFFFF" d="M350.219,155.363c0,0,2.093-70.363-8.781-70.363s-8.062,70-8.062,70s-2.125-62.5-9.625-70S315,155,315,155
			s-3.015-69.409-5.588-70"/>
		<path d="M354.717,155.497l-8.996-0.268c0.004-0.152,0.446-15.446-0.167-31.484c-0.796-20.868-2.809-29.258-4.098-32.559
			c-1.25,3.304-3.165,11.673-3.743,32.407c-0.392,14.062,0.026,27.505,0.134,30.574c0.016,0.426,0.024,0.66,0.025,0.679
			l-8.994,0.334c-0.001-0.027-0.021-0.539-0.051-1.453c-0.95-26.227-3.28-47.017-5.623-57.798
			c-1.94,12.676-3.354,37.349-3.706,59.143l-8.995,0.123c-1.318-30.338-3.522-64.091-4.931-68.063
			c0.172,0.485,1.016,1.836,2.83,2.253l2.016-8.771c3.042,0.699,4.006,2.997,4.796,9.232c1.591-7.062,3.429-8.625,5.48-9.456
			c2.143-0.867,4.475-0.334,6.236,1.427c1.011,1.011,2.807,2.807,4.737,10.862c1.338-5.7,2.924-8.245,4.38-9.76
			c1.921-2,3.991-2.419,5.388-2.419c1.389,0,3.449,0.416,5.374,2.399c3.017,3.108,6.624,10.564,7.751,40.893
			C355.165,140,354.721,155.344,354.717,155.497z"/>
	</g>
	<g display="inline">
		<path fill="#FFFFFF" d="M365.587,138.167c0,0-3.969,16.833,10.5,16.833c7.418,0,13.539-4.705,13.539-14.538
			c0-8.55-3.317-16.311-8.695-25.038C370.742,98.889,362.724,85,375.89,85c29,0,18.364,13.167,15.53,12.167"/>
		<path d="M376.087,159.5c-6.57,0-10.203-2.848-12.094-5.236c-5.111-6.456-3.039-16.056-2.786-17.129l8.764,2.048
			c-0.374,1.645-0.977,6.919,1.089,9.509c0.357,0.447,1.444,1.809,5.027,1.809c3.376,0,9.039-1.304,9.039-10.038
			c0-6.766-2.4-13.547-8.026-22.678c-9.635-15.636-15.21-25.621-11.406-32.434c1.797-3.219,5.228-4.851,10.196-4.851
			c13.422,0,21.13,2.717,23.563,8.307c1.449,3.33,0.662,7.21-2.055,10.128c-2.244,2.41-5.038,3.336-7.476,2.475l2.996-8.486
			c-1.2-0.424-2.109-0.074-2.287,0.042c0.174-0.114,0.412-0.429,0.501-0.644c-0.452-0.488-3.251-2.822-15.243-2.822
			c-1.485,0-2.144,0.228-2.364,0.331c-0.977,3.412,7.563,17.273,11.236,23.233c6.564,10.651,9.364,18.846,9.364,27.398
			C394.126,151.85,386.876,159.5,376.087,159.5z"/>
	</g>
</g>
<g id="Layer_1">
	<g>
		<path fill="#FFFFFF" d="M40,49c0,0,16.075-22,16.075,0c0,21-4.306,100.25,15.939,100.25S92.41,71.204,92.41,71.204
			s-0.447,76.248,15.598,76.248c24.639,0,19.189-112.723,25.992-110.307"/>
		<path d="M72.014,153.5c-3.314,0-6.409-1.368-8.949-3.957c-12.071-12.3-12.333-53.45-11.629-91.056
			c0.075-4.004,0.14-7.462,0.14-9.987c0-2.572-0.249-8.075-0.47-8.902c-1.872,1.102-5.122,8.342-7.472,11.557l-7.267-5.31
			c9.102-12.457,15.536-12.023,17.88-11.256c6.328,2.065,6.328,10.981,6.328,13.911c0,2.609-0.065,6.106-0.141,10.155
			c-0.414,22.129-1.382,79.95,9.054,90.583c1.097,1.118,1.926,1.262,2.526,1.262c4.017,0,9.963-15.179,13.374-41.049
			C87.816,91.027,88,72.372,88,71.134c0-0.048,0-0.075,0-0.081l8.955,0.035c0,0.058-0.023,0.211-0.025,0.452
			c-0.1,23.494,2.538,69.097,10.135,76.738c0.183,0.184,0.637,0.612,0.949,0.612c6.354,0,10.455-24.763,11.561-30.513
			c3.051-15.857,4.414-35.997,5.51-52.179c1.729-25.514,2.373-30.715,5.888-33.023c1.357-0.89,3.01-1.092,4.533-0.55l-3.013,8.48
			c2.088,0.743,3.979-0.53,4.406-1.42c-1.163,2.424-2.052,15.545-2.836,27.122c-3.153,46.55-7.291,85.083-26.055,85.083
			c-1.865,0-4.652-0.567-7.337-3.268c-1.61-1.62-5.726-5.76-8.88-23.483C87.631,144.19,81.114,153.5,72.014,153.5z"/>
	</g>
	<g>
		<path fill="#FFFFFF" d="M155.668,77c-3.668,1.75-17.167,101.167,6.333,60.5"/>
		<path d="M153.048,151.769c-0.448,0-0.903-0.045-1.366-0.139c-5.887-1.199-6.847-9.024-7.208-11.97
			c-1.451-11.822,0.656-30.927,1.628-38.592c3.309-26.069,5.705-27.212,7.629-28.13l3.875,8.123
			c1.188-0.566,1.637-1.455,1.641-1.464c-1.088,2.202-3.737,16.042-5.25,31.886c-1.649,17.265-1.011,32.255-0.117,36.002
			c0.94-1.079,2.336-8.967,4.227-12.237l7.792,4.504C162.423,145.766,158.214,151.769,153.048,151.769z"/>
	</g>
	<g>
		<path fill="#FFFFFF" d="M178.123,130.167c0,0-3.601,16.833,9.527,16.833c6.73,0,12.284-4.705,12.284-14.538
			c0-8.55-3.01-16.311-7.889-25.038C182.801,90.889,175.525,77,187.471,77c26.313,0,16.662,13.167,14.091,12.167"/>
		<path d="M187.65,151.5c-5.961,0-9.258-2.848-10.974-5.236c-4.638-6.456-2.757-16.056-2.528-17.129l7.952,2.048
			c-0.339,1.645-0.886,10.919,0.988,13.509c0.324,0.447,1.31,2.809,4.562,2.809c3.063,0,8.201-6.304,8.201-15.038
			c0-6.765-2.178-13.547-7.282-22.678c-8.742-15.636-13.801-25.621-10.349-32.434c1.63-3.219,4.743-4.851,9.251-4.851
			c12.179,0,19.172,2.717,21.379,8.307c1.315,3.33,0.601,7.211-1.864,10.129c-2.036,2.409-4.571,3.335-6.783,2.475l2.718-8.487
			c-1.087-0.422-1.913-0.074-2.074,0.042c0.158-0.114,0.374-3.429,0.455-3.643c-0.41-0.488-2.95-2.823-13.831-2.823
			c-1.348,0-4.667,0.228-4.867,0.331c-0.886,3.412,9.584,20.272,12.917,26.233c5.956,10.652,8.497,18.846,8.497,27.398
			C204.018,143.85,197.44,151.5,187.65,151.5z"/>
	</g>
	<g>
		<path fill="#FFFFFF" d="M157.795,62.497c0,0,4.054-10.062,4.585-9.828"/>
		<path d="M161.969,64.178l-8.348-3.363c4.557-11.312,5.276-11.604,7.014-12.312l3.558,0.046l-2.624,6.238
			c2.244,0.987,3.493,1.857,4.253,0.661C165.273,56.313,163.387,60.66,161.969,64.178z"/>
	</g>
	<g>
		<path fill="#FFFFFF" d="M237.738,77.194c0,0-13.447-5.958-13.447,34.972c0,25.501,2.426,34.883,8.784,34.883
			c6.549,0,12.924-2.215,12.924-35.049c0-35-4-67,0-67"/>
		<path d="M233.388,151.549c-12.441,0-13.472-18.629-13.472-39.383c0-20.967,3.415-33.389,10.439-37.977
			c3.554-2.322,7.307-2.052,9.442-1.116l-3.618,8.241c0,0,0.087,0.054,0.25,0.096c-0.134-0.034-2.596-4.786-4.371-2.531
			c-1.126,1.431-2.575,9.592-3.143,33.286c-0.729,30.443,3.725,35.383,4.472,35.383c0.783,0,3.846,0.389,5.033-1.812
			C240.835,141.258,242,125.906,242,112c0-13.468-0.61-26.773-1.1-37.463c-1.036-22.606-1.452-29.262,1.522-32.376
			C243.445,41.09,245,40.5,246,40.5v9c2,0,3.204-1.216,3.443-1.867c-0.904,2.455-0.194,15.225,0.322,26.491
			c0.494,10.782,1.172,24.201,1.172,37.875C250.938,140.83,246.227,151.549,233.388,151.549z"/>
	</g>
	<g>
		<path fill="#FFFFFF" d="M278.447,77c0,0-12.947-2.583-12.947,35.069c0,30.265,4.165,36.015,11.768,36.015
			c10.232,0,12.482-11.25,12.482-36.015C289.75,94.833,292.318,77,278.447,77z"/>
		<path d="M277.268,152.584c-13.675,0-16.268-14.239-16.268-40.515c0-14.896,2.004-25.763,5.957-32.299
			c3.989-6.596,9-7.308,10.97-7.308c0.315,0,0.589,0.017,0.817,0.04c4.199,0.062,7.634,1.425,10.211,4.055
			c5.849,5.97,5.626,16.926,5.391,28.524c-0.047,2.296-0.095,4.67-0.095,6.988C294.25,134.235,292.972,152.584,277.268,152.584z
			 M277.776,77c-1.097,0-7.776,8.372-7.776,35.319c0,31.515,4.728,35.39,7.268,35.39c5.056,0,7.982-9.219,7.982-35.577
			c0-2.41,0.049-4.861,0.097-7.202c0.188-9.23,0.382-23.54-2.821-26.809c-0.57-0.582-1.613-1.121-4.079-1.121H277.776z"/>
	</g>
	<g>
		<path fill="#FFFFFF" d="M346.219,147.363c0,0,2.093-70.363-8.781-70.363s-8.062,70-8.062,70s-2.125-62.5-9.625-70S311,147,311,147
			s-3.015-69.409-5.588-70"/>
		<path d="M350.717,149.497l-8.996-0.268c0.004-0.152,0.446-17.446-0.167-33.484c-0.796-20.869-2.809-34.258-4.098-37.559
			c-1.25,3.304-3.165,16.672-3.743,37.407c-0.392,14.062,0.026,29.505,0.134,32.574c0.016,0.426,0.024,0.66,0.025,0.679
			l-8.994,0.334c-0.001-0.027-0.021-2.539-0.051-3.453c-0.95-26.227-3.28-55.017-5.623-65.798
			c-1.94,12.676-3.354,47.349-3.706,69.143l-8.995,0.123c-1.318-30.338-3.522-65.091-4.931-69.063
			c0.172,0.485,1.016,0.836,2.83,1.253l2.016-8.771c3.042,0.699,4.006,2.997,4.796,9.232c1.591-7.062,3.429-8.625,5.48-9.456
			c2.143-0.867,4.475-0.334,6.236,1.427c1.011,1.011,2.807,2.807,4.737,10.861c1.338-5.7,2.924-8.244,4.38-9.76
			c1.921-2,3.991-2.419,5.388-2.419c1.389,0,3.449,0.416,5.374,2.399c3.017,3.108,6.624,10.564,7.751,40.893
			C351.165,132,350.721,149.344,350.717,149.497z"/>
	</g>
	<g>
		<path fill="#FFFFFF" d="M362.587,130.167c0,0-3.969,16.833,10.5,16.833c7.418,0,13.539-4.705,13.539-14.538
			c0-8.55-3.317-16.311-8.695-25.038C367.742,90.889,359.724,77,372.89,77c29,0,18.364,13.167,15.53,12.167"/>
	</g>
	<g>
		<path fill="#FFFFFF" d="M363.123,130.167c0,0-3.601,16.833,9.527,16.833c6.73,0,12.284-4.705,12.284-14.538
			c0-8.55-3.01-16.311-7.889-25.038C367.801,90.889,360.525,77,372.471,77c26.313,0,16.662,13.167,14.091,12.167"/>
		<path d="M372.65,151.5c-5.961,0-9.258-2.848-10.974-5.236c-4.638-6.456-2.757-16.056-2.528-17.129l7.952,2.048
			c-0.339,1.645-0.886,10.919,0.988,13.509c0.324,0.447,1.31,2.809,4.562,2.809c3.063,0,8.201-6.304,8.201-15.038
			c0-6.765-2.178-13.547-7.282-22.678c-8.742-15.636-13.801-25.621-10.349-32.434c1.63-3.219,4.743-4.851,9.251-4.851
			c12.179,0,19.172,2.717,21.379,8.307c1.315,3.33,0.601,7.211-1.864,10.129c-2.036,2.409-4.571,3.335-6.783,2.475l2.718-8.487
			c-1.087-0.422-1.913-0.074-2.074,0.042c0.158-0.114,0.374-3.429,0.455-3.643c-0.41-0.488-2.95-2.823-13.831-2.823
			c-1.348,0-4.667,0.228-4.867,0.331c-0.886,3.412,9.584,20.272,12.917,26.233c5.956,10.652,8.497,18.846,8.497,27.398
			C389.018,143.85,382.44,151.5,372.65,151.5z"/>
	</g>
</g>
</svg>
